Coordinates
version=1
nRows=4
nColumns=107
inDegrees=yes

Units are S.I. units (second, meters, Newtons, ...)
If the header above contains a line with 'inDegrees', this indicates whether rotational values are in degrees (yes) or radians (no).

endheader
time	sternoclavicular_r2	sternoclavicular_r3	unrotscap_r3	unrotscap_r2	acromioclavicular_r2	acromioclavicular_r3	acromioclavicular_r1	unrothum_r1	unrothum_r3	unrothum_r2	elv_angle	shoulder_elv	shoulder1_r2	shoulder_rot	elbow_flexion	pro_sup	deviation	flexion	proximal_distal_r1	proximal_distal_r3	cmc_flexion	cmc_abduction	mp_flexion	ip_flexion	mcp2_flexion	mcp2_abduction	pm2_flexion	md2_flexion	mcp3_flexion	mcp3_abduction	pm3_flexion	md3_flexion	mcp4_flexion	mcp4_abduction	pm4_flexion	md4_flexion	mcp5_flexion	mcp5_abduction	pm5_flexion	md5_flexion	bicpt_tx	bicpt_ty	bicpt_tz	bicpt2_tx	bicpt2_ty	bicpt2_tz	ptpt_tx	ptpt_ty	ptpt_tz	FCUpt_tx	FCUpt_ty	FCUpt_tz	EDCpt_tx	EDCpt_ty	EDCpt_tz	APLpt_tx	APLpt_ty	APLpt_tz	FPLpt_tx	FPLpt_ty	FPLpt_tz	FPLpt2_tx	FPLpt2_ty	FPLpt2_tz	PEC1pt2_tx	PEC1pt2_ty	PEC1pt2_tz	PEC1pt3_tx	PEC1pt3_ty	PEC1pt3_tz	PEC2pt2_tx	PEC2pt2_ty	PEC2pt2_tz	PEC2pt3_tx	PEC2pt3_ty	PEC2pt3_tz	PEC3pt2_tx	PEC3pt2_ty	PEC3pt2_tz	PEC3pt3_tx	PEC3pt3_ty	PEC3pt3_tz	DELT2pt2a_tx	DELT2pt2a_ty	DELT2pt2a_tz	DELT2pt2_tx	DELT2pt2_ty	DELT2pt2_tz	LAT1pt2_tx	LAT1pt2_ty	LAT1pt2_tz	LAT1pt3_tx	LAT1pt3_ty	LAT1pt3_tz	LAT2pt2_tx	LAT2pt2_ty	LAT2pt2_tz	LAT2pt3_tx	LAT2pt3_ty	LAT2pt3_tz	LAT3pt2_tx	LAT3pt2_ty	LAT3pt2_tz	LAT3pt3_tx	LAT3pt3_ty	LAT3pt3_tz
      0.86666667	     -0.31993796	      0.13551062	     -0.13551062	      0.31993796	     -0.06478093	      0.52353667	      0.23532613	     -0.23532613	     -0.52353667	      0.06478093	     99.16701903	     75.74815475	     -1.73079099	    -22.69521430	     28.38127085	     16.17090826	     -0.06959605	     -1.00890563	     -0.09841615	     -0.50445282	     -6.86073620	     -2.37460750	    -32.26591429	      1.50349610	     14.36241715	      2.00051307	     18.51841183	    -31.94889367	     39.56422291	      8.19036817	     86.53886418	     72.74146638	     37.53421065	     -3.44298721	     89.20945103	     57.32462257	      3.01691358	     -5.67297864	    -18.57106666	      4.92314249	      0.00083876	     -0.03085293	     -0.00482396	      0.01588037	     -0.01790991	     -0.00961575	      0.00635515	     -0.06567261	     -0.00135265	      0.00546878	     -0.18391015	     -0.00000345	     -0.00194050	      0.00049853	      0.00016362	      0.00017982	      0.00007193	      0.00035963	      0.00023017	      0.00069050	      0.00038841	     -0.00064024	      0.00019767	      0.00023720	      0.00248286	      0.00871105	      0.00605986	     -0.00812189	      0.01961037	     -0.01860040	      0.00248286	      0.00871105	      0.00605986	      0.00054707	      0.01817957	     -0.00955269	      0.00393205	      0.00484410	      0.01592867	      0.00000000	      0.00767291	      0.00000000	     -0.00711192	     -0.03286631	     -0.00632606	      0.01528296	     -0.00051612	     -0.00428999	     -0.00088373	      0.01481298	     -0.00605986	      0.00244078	      0.02137783	     -0.01767458	     -0.00593361	      0.01283511	     -0.00542862	     -0.01237221	      0.02710103	     -0.03034137	     -0.02322945	      0.01435008	     -0.00728025	     -0.01540214	      0.03130926	     -0.03791619
      0.90000000	     -0.32041688	      0.13571347	     -0.13571347	      0.32041688	     -0.06487790	      0.52432037	      0.23567840	     -0.23567840	     -0.52432037	      0.06487790	     99.04367003	     75.86154425	     -1.72863815	    -22.07966501	     28.38281368	     15.70583668	     -0.06768378	     -1.01170173	     -0.09560565	     -0.50585087	     -6.80042704	     -2.44888260	    -31.85940866	      0.34090545	     14.20958113	      1.91327663	     19.07585161	    -33.47478601	     39.63103132	      7.95057117	     86.53166081	     73.79035322	     37.48442141	     -3.48220311	     89.56369791	     56.72270915	      3.24472774	     -5.46556092	    -19.36359780	      4.95333789	      0.00083882	     -0.03085310	     -0.00482399	      0.01585391	     -0.01791033	     -0.00964972	      0.00638952	     -0.06565039	     -0.00131519	      0.00542541	     -0.18391665	      0.00000827	     -0.00188470	      0.00048306	      0.00016089	      0.00017798	      0.00007119	      0.00035596	      0.00022782	      0.00068345	      0.00038444	     -0.00062937	      0.00019569	      0.00023482	      0.00248657	      0.00872408	      0.00606893	     -0.00813405	      0.01963973	     -0.01862824	      0.00248657	      0.00872408	      0.00606893	      0.00054789	      0.01820679	     -0.00956699	      0.00393636	      0.00485135	      0.01593927	      0.00000000	      0.00769606	      0.00000000	     -0.00712256	     -0.03291551	     -0.00634528	      0.01494744	     -0.00049665	     -0.00405370	     -0.00088505	      0.01483516	     -0.00606893	      0.00244443	      0.02140983	     -0.01770104	     -0.00594249	      0.01285433	     -0.00543675	     -0.01239073	      0.02714160	     -0.03038679	     -0.02326423	      0.01437156	     -0.00729114	     -0.01542519	      0.03135613	     -0.03797295
      0.93333333	     -0.31972535	      0.13542057	     -0.13542057	      0.31972535	     -0.06473788	      0.52318877	      0.23516975	     -0.23516975	     -0.52318877	      0.06473788	     99.21277756	     75.69781843	     -1.73158963	    -22.93443304	     28.39145983	     16.46541469	     -0.07077031	     -1.01332113	     -0.10014469	     -0.50666057	     -6.91771981	     -2.41764470	    -32.06726294	      0.44455572	     14.38486535	      1.92745713	     18.94289721	    -33.69511043	     39.80884011	      7.93165798	     86.52737444	     73.50399780	     37.84491089	     -3.58673431	     89.35039477	     57.08802790	      3.33780539	     -5.19645215	    -19.51684678	      4.92644356	      0.00083910	     -0.03085410	     -0.00482415	      0.01589689	     -0.01791268	     -0.00959410	      0.00633339	     -0.06568668	     -0.00137638	      0.00549628	     -0.18390600	     -0.00001080	     -0.00197585	      0.00050835	      0.00016528	      0.00017686	      0.00007074	      0.00035372	      0.00022638	      0.00067913	      0.00038201	     -0.00065014	      0.00019953	      0.00023943	      0.00248121	      0.00870526	      0.00605583	     -0.00811650	      0.01959734	     -0.01858804	      0.00248121	      0.00870526	      0.00605583	      0.00054671	      0.01816749	     -0.00954634	      0.00393014	      0.00484088	      0.01592396	      0.00000000	      0.00766265	      0.00000000	     -0.00710719	     -0.03284447	     -0.00631754	      0.01541201	     -0.00052373	     -0.00438331	     -0.00088314	      0.01480314	     -0.00605583	      0.00243915	      0.02136362	     -0.01766284	     -0.00592967	      0.01282659	     -0.00542501	     -0.01236399	      0.02708302	     -0.03032121	     -0.02321402	      0.01434054	     -0.00727541	     -0.01539190	      0.03128846	     -0.03789100
      0.96666667	     -0.31973543	      0.13542484	     -0.13542484	      0.31973543	     -0.06473992	      0.52320526	      0.23517716	     -0.23517716	     -0.52320526	      0.06473992	     99.18042493	     75.70020421	     -1.73102497	    -22.90791046	     28.52405831	     16.89143800	     -0.05483827	     -0.98326767	     -0.07688378	     -0.49163383	     -6.80633310	     -2.63813689	    -31.92665488	      0.13080046	     14.31751315	      2.07667480	     18.86095821	    -34.52254262	     40.01575265	      8.29524886	     86.59418441	     74.76984223	     38.08645621	     -3.19828752	     89.66914446	     57.35081567	      3.44011023	     -4.60611981	    -19.96244705	      4.92376713	      0.00084349	     -0.03086929	     -0.00482660	      0.01592041	     -0.01794870	     -0.00956254	      0.00630191	     -0.06570703	     -0.00141070	      0.00553610	     -0.18389996	     -0.00002130	     -0.00202697	      0.00052262	      0.00016761	      0.00019637	      0.00007855	      0.00039273	      0.00025135	      0.00075404	      0.00042415	     -0.00063081	      0.00019590	      0.00023507	      0.00248129	      0.00870553	      0.00605602	     -0.00811675	      0.01959796	     -0.01858862	      0.00248129	      0.00870553	      0.00605602	      0.00054672	      0.01816806	     -0.00954664	      0.00393023	      0.00484104	      0.01592419	      0.00000000	      0.00766313	      0.00000000	     -0.00710741	     -0.03284551	     -0.00631794	      0.01539774	     -0.00052288	     -0.00437293	     -0.00088317	      0.01480361	     -0.00605602	      0.00243923	      0.02136430	     -0.01766340	     -0.00592985	      0.01282699	     -0.00542519	     -0.01236438	      0.02708387	     -0.03032216	     -0.02321475	      0.01434100	     -0.00727564	     -0.01539239	      0.03128944	     -0.03789219
